<svg width="15" height="12" viewBox="0 0 15 12" fill="none" xmlns="http://www.w3.org/2000/svg">
<path d="M13.5 6C13.5 5.43 13.8225 4.935 14.295 4.68C14.745 4.4325 15 3.9225 15 3.405V1.5C15 0.675 14.325 0 13.5 0H1.5C0.675 0 0.00749999 0.6675 0.00749999 1.4925V3.405C0.00749999 3.9225 0.255 4.4325 0.7125 4.6725C1.185 4.935 1.5 5.43 1.5 6C1.5 6.57 1.1775 7.0725 0.705 7.32C0.255 7.5675 0 8.0775 0 8.595V10.2825C0 11.325 0.675 12 1.5 12H13.5C14.325 12 15 11.325 15 10.5V8.595C15 8.0775 14.745 7.5675 14.295 7.32C13.8225 7.065 13.5 6.57 13.5 6ZM9.375 9.075L7.5 7.875L5.625 9.0825C5.34 9.2625 4.9725 9 5.0625 8.67L5.625 6.51L3.9 5.1C3.84159 5.05178 3.79904 4.98709 3.7779 4.91436C3.75676 4.84162 3.758 4.76421 3.78147 4.69219C3.80494 4.62017 3.84954 4.55689 3.90947 4.51057C3.9694 4.46425 4.04189 4.43705 4.1175 4.4325L6.3375 4.305L7.1475 2.2425C7.275 1.9275 7.725 1.9275 7.845 2.2425L8.655 4.3125L10.875 4.44C11.2125 4.4625 11.355 4.89 11.0925 5.1075L9.3675 6.5175L9.9375 8.6625C10.0275 9 9.66 9.2625 9.375 9.075Z" fill="white"/>
</svg>
