<svg width="15" height="17" viewBox="0 0 15 17" fill="none" xmlns="http://www.w3.org/2000/svg">
<path d="M0.220909 0.693704C0.237785 0.501853 0.333095 0.323468 0.487016 0.195649C0.640937 0.0678292 0.841623 0.000412658 1.04734 0.00741994C1.25305 0.0144272 1.44796 0.0953189 1.59153 0.233272C1.7351 0.371225 1.81628 0.555621 1.81818 0.748112V4.56859C1.81818 4.7095 1.87804 4.84465 1.9846 4.94429C2.09115 5.04394 2.23567 5.09992 2.38636 5.09992C2.53705 5.09992 2.68157 5.04394 2.78813 4.94429C2.89468 4.84465 2.95455 4.7095 2.95455 4.56859V0.637596C2.95455 0.468495 3.02638 0.30632 3.15425 0.186747C3.28211 0.067175 3.45553 0 3.63636 0C3.81719 0 3.99062 0.067175 4.11848 0.186747C4.24635 0.30632 4.31818 0.468495 4.31818 0.637596V4.56859C4.31818 4.7095 4.37804 4.84465 4.4846 4.94429C4.59115 5.04394 4.73567 5.09992 4.88636 5.09992C5.03705 5.09992 5.18157 5.04394 5.28813 4.94429C5.39468 4.84465 5.45455 4.7095 5.45455 4.56859V0.748112C5.45645 0.555621 5.53763 0.371225 5.6812 0.233272C5.82477 0.0953189 6.01968 0.0144272 6.22539 0.00741994C6.4311 0.000412658 6.63179 0.0678292 6.78571 0.195649C6.93963 0.323468 7.03494 0.501853 7.05182 0.693704C7.09091 1.21398 7.27273 3.71506 7.27273 5.10077C7.27273 6.24844 6.66364 7.26349 5.73455 7.87813C5.53818 8.0082 5.49091 8.14592 5.49545 8.21563C5.60727 9.81217 5.90909 14.1818 5.90909 14.8747C5.90909 15.4384 5.66964 15.9789 5.24342 16.3775C4.81721 16.7761 4.23913 17 3.63636 17C3.0336 17 2.45552 16.7761 2.0293 16.3775C1.60308 15.9789 1.36364 15.4384 1.36364 14.8747C1.36364 14.181 1.66545 9.81217 1.77727 8.21563C1.78182 8.14592 1.73455 8.0082 1.53818 7.87813C1.06282 7.56409 0.67502 7.14794 0.407358 6.66464C0.139696 6.18135 -3.40706e-06 5.64503 0 5.10077C0 3.71506 0.181818 1.21398 0.220909 0.693704ZM8.63636 4.88823C8.63636 3.59179 9.18709 2.34845 10.1674 1.43173C11.1477 0.515009 12.4773 0 13.8636 0C14.0445 0 14.2179 0.067175 14.3458 0.186747C14.4736 0.30632 14.5455 0.468495 14.5455 0.637596V7.86368C14.5455 8.13402 14.6418 9.47467 14.75 10.9598L14.7545 11.0304C14.8727 12.6524 15 14.4165 15 14.8747C15 15.4384 14.7606 15.9789 14.3343 16.3775C13.9081 16.7761 13.33 17 12.7273 17C12.1245 17 11.5464 16.7761 11.1202 16.3775C10.694 15.9789 10.4545 15.4384 10.4545 14.8747C10.4545 14.4377 10.5709 12.655 10.6836 11.0202C10.74 10.1947 10.7973 9.39476 10.84 8.80137L10.8609 8.50128H10.2273C10.0184 8.50128 9.81148 8.46279 9.61846 8.38803C9.42544 8.31326 9.25006 8.20368 9.10233 8.06553C8.9546 7.92738 8.83742 7.76338 8.75746 7.58288C8.67751 7.40238 8.63636 7.20892 8.63636 7.01355V4.88823Z" fill="white"/>
</svg>
